<?xml version="1.0" encoding="UTF-8"?>
<svg width="40px" height="40px" viewBox="0 0 40 40" version="1.1" xmlns="http://www.w3.org/2000/svg" xmlns:xlink="http://www.w3.org/1999/xlink">
    <!-- Generator: sketchtool 52.5 (67469) - http://www.bohemiancoding.com/sketch -->
    <title>BB039758-AF40-4B7F-AFC7-DAB3D1C00281</title>
    <desc>Created with sketchtool.</desc>
    <g id="Symbols" stroke="none" stroke-width="1" fill="none" fill-rule="evenodd">
        <g id="comp/footers/desk" transform="translate(-827.000000, -20.000000)">
            <g id="Group-20" transform="translate(745.000000, 20.000000)">
                <g id="Twitter-Copy" transform="translate(82.000000, 0.000000)">
                    <path d="M0,19.6843383 C0,8.81297792 8.81297792,0 19.6843383,0 C30.5556987,0 39.3686766,8.81297792 39.3686766,19.6843383 C39.3686766,30.5556987 30.5556987,39.3686766 19.6843383,39.3686766 C8.81297792,39.3686766 0,30.5556987 0,19.6843383 Z" id="back" fill="#55ACEE"></path>
                    <path d="M19.0947945,15.9996768 L19.1361009,16.6807993 L18.4476615,16.5973965 C15.9417421,16.2776859 13.7525049,15.1934501 11.8937185,13.3724899 L10.9849785,12.46896 L10.7509092,13.1361821 C10.2552328,14.6235313 10.5719149,16.1942832 11.604574,17.2507181 C12.1553255,17.8345374 12.0314064,17.9179402 11.0813601,17.5704287 C10.7509092,17.459225 10.4617646,17.3758222 10.434227,17.4175236 C10.3378455,17.5148268 10.6682964,18.7797687 10.9299034,19.2801852 C11.2878919,19.9752082 12.0176376,20.6563307 12.8162273,21.059444 L13.4908979,21.3791546 L12.6923082,21.393055 C11.9212561,21.393055 11.8937185,21.4069555 11.9763313,21.6988651 C12.251707,22.602395 13.3394413,23.5615267 14.5510946,23.9785405 L15.4047594,24.2704502 L14.6612449,24.7152649 C13.5597419,25.354686 12.2654758,25.7160979 10.9712098,25.7438989 C10.3516143,25.7577993 9.84216916,25.8134012 9.84216916,25.8551025 C9.84216916,25.9941071 11.5219613,26.7725329 12.4995452,27.078343 C15.432297,27.9818728 18.9158003,27.59266 21.53187,26.049709 C23.3906563,24.9515727 25.2494427,22.7692005 26.1168763,20.6563307 C26.5850151,19.5303935 27.0531539,17.4731255 27.0531539,16.4861928 C27.0531539,15.8467717 27.0944602,15.7633689 27.8655124,14.9988437 C28.3198823,14.554029 28.7467148,14.0675129 28.8293275,13.9285083 C28.9670154,13.6643996 28.9532466,13.6643996 28.2510384,13.9007074 C27.0806915,14.3177212 26.915466,14.2621193 27.4937551,13.6365986 C27.9205875,13.1917839 28.4300327,12.3855573 28.4300327,12.1492495 C28.4300327,12.1075481 28.2235008,12.1770504 27.9894314,12.3021545 C27.7415933,12.4411591 27.1908418,12.649666 26.7777781,12.7747702 L26.0342636,13.011078 L25.359593,12.5523628 C24.9878357,12.3021545 24.4646218,12.0241453 24.189246,11.9407426 C23.4870378,11.7461362 22.4130724,11.7739371 21.7797082,11.9963444 C20.0586097,12.6218651 18.9708755,14.2343184 19.0947945,15.9996768 Z" id="Shape" fill="#FFFFFF"></path>
                </g>
            </g>
        </g>
    </g>
</svg>